<svg version="1.1" id="Layer_1" xmlns="http://www.w3.org/2000/svg"
	xmlns:xlink="http://www.w3.org/1999/xlink" x="0px" y="0px"
	width="100%" viewBox="0 0 617 369" enable-background="new 0 0 617 369" xml:space="preserve">
<path fill="#FDFDFD" opacity="1.000000" stroke="none" 
	d="
M76.166138,110.582085 
	C85.823944,121.519257 95.357407,132.943695 104.971466,144.299896 
	C115.648262,156.911423 126.398575,169.460709 138.340317,181.859680 
	C138.340317,160.739685 138.340317,139.619690 138.340317,118.257034 
	C145.385330,118.257034 151.438171,118.257034 157.748169,118.257034 
	C157.748169,156.425827 157.748169,194.334122 157.748169,233.548553 
	C136.662567,208.731827 116.139702,184.577423 94.839737,159.508408 
	C94.839737,181.806168 94.839737,203.245346 94.839737,224.875671 
	C88.387794,224.875671 82.750702,224.875671 76.661575,224.898697 
	C76.138191,206.109772 76.027878,187.297867 76.006378,168.485855 
	C75.984489,149.337051 76.050056,130.188141 76.166138,110.582085 
z"/>
<path fill="#F9F9F9" opacity="1.000000" stroke="none" 
	d="
M543.800537,179.433609 
	C518.985229,179.892609 494.239410,179.892609 469.246124,179.892609 
	C469.246124,174.409210 469.246124,169.309265 469.246124,163.568146 
	C477.242249,163.568146 485.299042,163.572388 493.355835,163.567200 
	C507.126862,163.558319 520.897888,163.525955 534.668884,163.545853 
	C537.464478,163.549896 540.259888,163.741608 543.430786,163.953094 
	C543.827515,169.031143 543.848755,174.002869 543.800537,179.433609 
z"/>
<path fill="#FEFEFE" opacity="1.000000" stroke="none" 
	d="
M419.954773,82.018021 
	C416.966309,98.527130 411.046570,113.436676 398.405243,125.251747 
	C392.517944,130.754227 387.554230,137.244858 381.510834,144.029785 
	C390.714203,145.894638 399.167450,147.607498 407.726959,149.341888 
	C407.788483,148.698593 407.885529,149.174500 407.708099,149.323395 
	C401.609314,154.441986 399.559021,161.667236 396.688354,168.733002 
	C391.207184,182.224182 377.632996,192.129425 365.595795,190.976059 
	C363.206146,190.747086 360.844116,190.230438 356.926544,189.597015 
	C366.432831,199.480408 374.898834,208.306946 383.392944,217.106293 
	C391.551239,225.557709 400.038696,233.718582 407.761353,242.549454 
	C410.732208,245.946609 412.468597,250.684021 413.916077,255.090424 
	C415.990326,261.404907 417.284210,267.975769 419.288788,275.936249 
	C413.160278,268.346405 405.533478,266.224182 397.944916,263.706543 
	C394.355530,262.515686 390.911072,259.993835 388.171936,257.293060 
	C377.753387,247.020462 367.649384,236.428848 357.012268,225.530731 
	C355.695343,228.835922 354.819458,231.032425 353.944885,233.229446 
	C352.529541,236.785034 350.302887,239.291321 346.192932,239.707123 
	C344.755829,239.852524 343.207581,240.234070 341.990631,240.971039 
	C338.281494,243.217316 336.152039,242.421753 335.690613,238.180801 
	C333.549866,239.475937 330.383331,242.244278 329.641144,241.700958 
	C325.144928,238.409424 317.224487,240.670319 315.470245,232.934921 
	C314.871246,230.293610 313.372375,227.856384 312.070770,224.828323 
	C311.325226,225.392395 310.833557,225.681793 310.442627,226.072113 
	C298.916290,237.581284 287.476685,249.179245 275.809570,260.543701 
	C273.769379,262.531006 270.869049,263.737091 268.210052,264.966888 
	C261.832947,267.916351 255.363113,270.665375 250.501083,272.804382 
	C252.221527,267.024445 253.944061,259.232117 256.905579,251.943237 
	C259.143188,246.436050 262.251038,240.928192 266.212555,236.541245 
	C278.791412,222.611526 291.961609,209.216248 304.868652,195.581619 
	C305.976593,194.411224 306.828461,192.998413 308.072449,191.332367 
	C304.198547,191.040298 300.609680,191.125580 297.175079,190.439194 
	C289.197296,188.844940 284.792816,182.635941 280.575470,176.500366 
	C276.845947,171.074539 273.635834,165.293884 269.973389,159.819046 
	C267.207306,155.684128 264.089294,151.784607 261.184784,147.857162 
	C269.751221,146.309845 278.238068,144.776901 287.490662,143.105652 
	C270.481934,125.337296 252.786453,108.797234 249.899399,84.075783 
	C256.977051,87.270943 264.892792,90.640953 272.598083,94.438065 
	C275.148407,95.694870 277.236542,97.963463 279.399353,99.920479 
	C291.117065,110.523201 302.791901,121.173264 314.481537,131.807022 
	C313.945343,132.492477 313.409180,133.177933 312.872986,133.863388 
	C314.582153,129.222229 316.177216,124.535027 318.027802,119.950966 
	C320.652679,113.448822 324.828827,108.325951 331.226959,105.014656 
	C333.242462,103.971550 334.699097,101.848579 336.349487,100.278824 
	C344.769196,109.525993 355.420624,117.547493 355.911652,133.245804 
	C366.250092,122.298721 375.650757,112.685326 384.624817,102.688942 
	C388.707397,98.141304 393.489746,95.275177 398.992889,92.853897 
	C405.973297,89.782677 412.556427,85.808487 419.647827,82.155472 
	C419.984833,82.087280 419.990814,82.015198 419.954773,82.018021 
z"/>
<path fill="#FCFCFC" opacity="1.000000" stroke="none" 
	d="
M449.739807,230.259491 
	C427.915405,222.810608 414.672089,207.926559 410.112701,185.938568 
	C403.538208,154.232727 424.619904,124.463257 455.172546,117.375374 
	C480.718201,111.449059 510.189423,125.254013 521.060669,149.989777 
	C514.072388,149.989777 507.357697,150.175308 500.668854,149.841797 
	C499.237335,149.770416 497.725464,147.979034 496.544739,146.706970 
	C477.373779,126.053001 443.219086,131.633316 431.080872,157.311798 
	C418.099182,184.774689 439.448273,216.262436 469.767761,214.389038 
	C483.031403,213.569519 493.226807,207.570816 500.941040,196.855713 
	C501.957794,195.443436 504.173615,194.228287 505.907959,194.121475 
	C511.502869,193.776993 517.132263,193.993088 522.864990,193.993088 
	C516.084351,218.517807 485.234741,241.202698 449.739807,230.259491 
z"/>
<path fill="#F5F5F5" opacity="1.000000" stroke="none" 
	d="
M233.963043,183.614868 
	C218.015030,183.614822 202.560287,183.502197 187.109314,183.694000 
	C183.253098,183.741867 181.688919,182.786697 182.023499,178.687378 
	C182.385864,174.247650 182.105591,169.755478 182.105591,164.837341 
	C203.103119,164.837341 223.763809,164.837341 244.726044,164.837341 
	C244.726044,170.846085 244.726044,176.914932 244.726044,183.614899 
	C241.335922,183.614899 237.896820,183.614899 233.963043,183.614868 
z"/>
<path fill="#FCFCFC" opacity="1.000000" stroke="none" 
	d="
M216.000000,137.007339 
	C204.544739,137.007339 193.589462,137.007339 182.383606,137.007339 
	C182.383606,130.671371 182.383606,124.753334 182.383606,118.479965 
	C203.030655,118.479965 223.605530,118.479965 244.594513,118.479965 
	C244.594513,124.294525 244.594513,130.340897 244.594513,137.007339 
	C235.351852,137.007339 225.925934,137.007339 216.000000,137.007339 
z"/>
<path fill="#FEFEFE" opacity="1.000000" stroke="none" 
	d="
M210.000000,208.998306 
	C221.798096,208.998306 233.096191,208.998306 244.697235,208.998306 
	C244.697235,215.295135 244.697235,221.357483 244.697235,227.712555 
	C224.030777,227.712555 203.332733,227.712555 182.384338,227.712555 
	C182.384338,221.645905 182.384338,215.714935 182.384338,208.998306 
	C191.360779,208.998306 200.430389,208.998306 210.000000,208.998306 
z"/>
</svg>